<?xml version="1.0" standalone="no"?>
<!DOCTYPE svg PUBLIC "-//W3C//DTD SVG 20010904//EN"
 "http://www.w3.org/TR/2001/REC-SVG-20010904/DTD/svg10.dtd">
<svg version="1.0" xmlns="http://www.w3.org/2000/svg"
 width="256.000000pt" height="256.000000pt" viewBox="0 0 256.000000 256.000000"
 preserveAspectRatio="xMidYMid meet">
<metadata>
Created by potrace 1.14, written by Peter Selinger 2001-2017
</metadata>
<g transform="translate(0.000000,256.000000) scale(0.100000,-0.100000)"
fill="#000000" stroke="none">
<path d="M570 2553 c-14 -3 -42 -9 -62 -14 l-37 -10 3 -72 c2 -39 4 -77 5 -83
1 -7 21 -17 46 -23 102 -26 211 -87 338 -190 l68 -55 -442 -442 c-429 -429
-441 -442 -441 -480 0 -49 37 -84 88 -84 33 0 62 27 458 423 233 232 432 430
443 439 19 17 21 16 70 -45 114 -142 190 -284 197 -369 1 -3 3 -9 6 -11 9 -10
170 -15 170 -6 0 11 1 13 12 59 16 63 17 241 3 315 -37 193 -68 248 -225 406
-76 76 -147 138 -180 157 -57 31 -148 65 -210 77 -40 8 -272 14 -310 8z"/>
<path d="M2053 1989 c-89 -33 -63 -158 34 -164 l38 -3 0 -193 1 -194 194 0
195 0 2 265 c0 146 -1 272 -3 280 -3 13 -36 15 -223 16 -121 0 -228 -3 -238
-7z"/>
<path d="M1574 1938 c-12 -19 -15 -105 -4 -132 12 -32 54 -36 70 -7 14 27 13
124 -2 139 -15 15 -55 16 -64 0z"/>
<path d="M1810 1862 c-21 -8 -120 -112 -120 -127 0 -18 28 -45 46 -45 14 0 93
72 123 112 22 29 -13 72 -49 60z"/>
<path d="M1549 1491 c-37 -38 -39 -82 -4 -116 23 -24 33 -27 83 -28 l22 0 0
-196 0 -197 195 0 195 1 0 282 0 282 -231 1 -231 0 -29 -29z"/>
<path d="M1279 1405 c-62 -32 -71 -45 -55 -75 16 -33 54 -30 115 8 48 29 61
53 41 77 -17 21 -48 18 -101 -10z"/>
<path d="M2129 1330 c-1 -21 -1 -352 0 -365 1 -7 71 -10 194 -10 l192 0 1 193
c1 105 -2 193 -5 193 -3 1 -90 2 -193 3 -162 1 -188 -1 -189 -14z"/>
<path d="M1099 1033 c-15 -6 -35 -23 -45 -38 -14 -22 -15 -32 -6 -64 13 -41
43 -61 92 -61 l30 0 0 -195 c0 -107 3 -195 8 -196 32 -4 382 -3 383 1 4 27 3
544 -2 552 -9 14 -425 16 -460 1z"/>
<path d="M1650 676 c0 -146 3 -195 13 -198 6 -2 93 -3 192 -3 l180 1 3 197 2
197 -195 0 -195 -1 0 -193z"/>
<path d="M2129 852 c-6 -116 -2 -358 7 -366 7 -7 73 -10 190 -9 98 1 182 2
185 2 3 1 6 89 6 196 l-1 195 -193 0 c-174 -1 -193 -3 -194 -18z"/>
<path d="M634 561 c-51 -9 -81 -66 -60 -116 17 -39 42 -55 88 -55 l34 0 -1
-177 c0 -144 2 -180 15 -195 14 -17 30 -18 195 -16 l180 3 0 280 0 280 -216 0
c-118 0 -224 -2 -235 -4z"/>
<path d="M1170 195 l0 -195 198 0 197 0 -2 183 c-1 100 -2 188 -2 195 -1 9
-47 12 -196 12 l-195 0 0 -195z"/>
<path d="M1650 195 l0 -195 195 0 195 0 0 195 0 195 -195 0 -195 0 0 -195z"/>
<path d="M2128 383 c-3 -7 -2 -332 1 -370 2 -20 354 -18 374 1 11 12 14 51 13
193 l-1 178 -192 3 c-105 1 -193 -1 -195 -5z"/>
</g>
</svg>
